<?xml version="1.0" standalone="no"?>
<!DOCTYPE svg PUBLIC "-//W3C//DTD SVG 20010904//EN"
 "http://www.w3.org/TR/2001/REC-SVG-20010904/DTD/svg10.dtd">
<svg version="1.0" xmlns="http://www.w3.org/2000/svg"
 width="1188.000000pt" height="1188.000000pt" viewBox="0 0 1188.000000 1188.000000"
 preserveAspectRatio="xMidYMid meet">
<metadata>
Created by potrace 1.11, written by Peter Selinger 2001-2013
</metadata>
<g transform="translate(0.000000,1188.000000) scale(0.100000,-0.100000)"
fill="#000000" stroke="none">
<path d="M4285 6920 l1 -2210 -71 0 c-38 0 -543 0 -1121 0 -1001 0 -1052 0
-1056 -17 -3 -10 -2 -27 2 -38 4 -10 3 -37 -1 -59 -4 -23 -3 -49 2 -58 5 -10
6 -18 1 -18 -4 0 -7 -14 -5 -30 2 -17 4 -43 6 -59 2 -17 1 -28 -3 -26 -3 2 -5
-19 -5 -46 0 -27 4 -49 8 -49 5 0 5 -5 2 -10 -4 -6 -6 -36 -6 -68 2 -116 1
-134 -4 -143 -3 -5 -1 -18 5 -29 6 -11 7 -20 2 -20 -4 0 -7 -13 -5 -30 2 -16
4 -43 6 -59 2 -17 1 -28 -3 -26 -3 2 -5 -19 -5 -46 0 -27 4 -49 8 -49 5 0 5
-4 2 -10 -9 -14 -11 -143 -2 -157 4 -6 3 -14 -2 -18 -6 -3 -7 -15 -2 -27 4
-12 4 -40 0 -62 -4 -23 -3 -49 2 -58 6 -12 6 -18 0 -18 -6 0 -7 -9 -2 -22 4
-12 5 -36 1 -53 -4 -17 -4 -39 0 -50 7 -19 31 -19 1748 -21 l1742 -1 0 2331 0
2331 800 1 800 0 0 -2363 0 -2363 655 0 655 0 1 28 c0 15 1 1078 2 2362 l2
2335 690 1 c380 1 695 2 700 3 8 1 13 163 5 181 -1 3 -1 10 0 15 8 38 8 45 -3
45 -8 0 -8 3 -2 8 12 8 14 382 2 382 -5 0 -5 5 -1 12 10 16 11 169 1 175 -4 2
-5 9 -2 14 12 19 13 49 2 49 -8 0 -8 3 -2 8 12 9 14 182 1 182 -4 0 -4 6 1 13
5 6 9 19 9 27 -1 13 -318 15 -2781 18 l-2781 2 1 -2210z"/>
</g>
</svg>
