<?xml version="1.0" standalone="no"?>
<!DOCTYPE svg PUBLIC "-//W3C//DTD SVG 20010904//EN"
 "http://www.w3.org/TR/2001/REC-SVG-20010904/DTD/svg10.dtd">
<svg version="1.0" xmlns="http://www.w3.org/2000/svg"
 width="1052.000000pt" height="1052.000000pt" viewBox="0 0 1052.000000 1052.000000"
 preserveAspectRatio="xMidYMid meet">
<metadata>
Created by potrace 1.11, written by Peter Selinger 2001-2013
</metadata>
<g transform="translate(0.000000,1052.000000) scale(0.100000,-0.100000)"
fill="#000000" stroke="none">
<path d="M3801 8080 c-4 -3 -8 -882 -7 -1955 l0 -1950 -994 -5 -995 -5 0 -605
0 -605 1535 -1 c844 -1 1540 1 1546 3 8 3 11 579 12 2056 0 1129 1 2057 1
2063 1 11 71 11 90 0 6 -4 11 -4 11 1 0 4 56 8 125 8 69 0 125 -4 125 -8 0 -5
5 -5 10 -2 15 9 150 12 150 3 0 -4 7 -5 16 -1 23 9 135 10 167 2 15 -4 27 -5
27 -1 0 8 202 7 224 -1 9 -4 16 -3 16 1 0 4 79 7 175 7 96 0 175 -4 175 -8 0
-4 8 -4 18 0 9 5 26 7 37 7 11 -1 27 -2 35 -3 13 -1 15 -241 15 -2093 l0
-2092 570 -1 c314 -1 575 0 580 2 8 3 11 649 10 2090 0 1458 3 2087 11 2090
20 7 164 9 164 1 0 -4 7 -5 16 -1 23 9 135 10 167 2 15 -4 27 -5 27 -1 0 8
202 7 224 -1 9 -4 16 -3 16 1 0 9 374 7 389 -2 6 -4 11 -4 11 1 0 4 49 7 108
7 l109 -2 -1 502 -1 501 -2453 0 c-1349 1 -2456 -2 -2461 -5z"/>
</g>
</svg>
